<svg xmlns="http://www.w3.org/2000/svg" width="1024px" height="1024px" style="overflow: visible;" viewBox="102 150 310 120" data-svgdocument="" id="_s4M8nGOz1twn-jflBdZg8" class="fl-svgdocument" x="0" y="0" overflow="hidden" data-bbox="109.91554946121693 99.49145326575484 294.1689010775661 221.9329440060289">
    <defs id="_l5vcj4bYiXvkGEinGZVGP" transform="matrix(0.786506175994873, 0, 0, 0.786506175994873, -56.791866302490234, 79.21818542480469)" data-uid="o_f07n52919_5">
        <linearGradient id="o_f07n52919_3" gradientUnits="userSpaceOnUse" x1="5.760479" y1="9.4629889" x2="20.4283485" y2="16.3027287" data-uid="o_f07n52919_6">
            <stop offset="0" stop-color="rgb(255, 255, 255)" stop-opacity="0.2" data-uid="o_f07n52919_7"></stop>
            <stop offset="1" stop-color="rgb(255, 255, 255)" stop-opacity="0" data-uid="o_f07n52919_8"></stop>
        </linearGradient>
    </defs>
    <g id="_ymVTq6D-Phgb5IBlW2TZ4" transform="matrix(0.8798192739486694, 0, 0, 0.8798192739486694, 28.25641632080078, 37.50298309326172)" data-uid="o_f07n52919_9">
        <path id="_qgjPU0mcXECYt0pIIcxoD" d="M63.998,83.844c-5.33,0-11.053-1.852-16.399-3.582c-8.526-2.758-16.582-5.363-21.653-0.766   c-0.859,0.779-2.188,0.713-2.967-0.146s-0.714-2.188,0.146-2.967c6.874-6.23,16.478-3.123,25.767-0.117   c9.71,3.141,18.88,6.109,24.664-0.938c0.734-0.896,2.061-1.027,2.953-0.291c0.898,0.736,1.029,2.057,0.293,2.955   C73.213,82.363,68.762,83.844,63.998,83.844z" stroke="none" fill="#2a96f5" transform="matrix(2.9593982696533203, 0, 0, 2.9593982696533203, 110.89112854003906, 14.893538475036621)" stroke-width="1" data-uid="o_f07n52919_10"></path>
        <path id="_1Pe480kLRGf0hnpfJ5oyX" d="M63.912,75.459c-2.371,0-4.645-0.375-6.604-0.799c-1.135-0.246-1.855-1.363-1.609-2.496   c0.246-1.135,1.361-1.857,2.498-1.609c7.359,1.596,11.959,0.512,15.357-3.627c0.734-0.896,2.061-1.027,2.953-0.291   c0.898,0.736,1.027,2.059,0.293,2.955C73.033,74.182,68.301,75.459,63.912,75.459z" stroke="none" fill="#2a96f5" transform="matrix(2.9593982696533203, 0, 0, 2.9593982696533203, 111.73106384277344, 13.752798080444336)" stroke-width="1" data-uid="o_f07n52919_11"></path>
        <path id="_B70GG_DdfdEQi18EytKna" d="M24.536,71.639c-0.572,0-1.142-0.232-1.557-0.688c-0.778-0.861-0.714-2.188,0.146-2.967   c1.77-1.604,3.871-2.686,6.248-3.213c1.135-0.24,2.254,0.463,2.505,1.596c0.252,1.133-0.463,2.254-1.596,2.506   c-1.678,0.371-3.097,1.098-4.336,2.223C25.543,71.461,25.039,71.639,24.536,71.639z" stroke="none" fill="#2a96f5" transform="matrix(2.9593982696533203, 0, 0, 2.9593982696533203, 112.369140625, 16.523130416870117)" stroke-width="1" data-uid="o_f07n52919_12"></path>
        <path id="_Lj2uh_9Mj-66QxsUpnbTp" d="M73.383,40.815c-0.617-3.373-1.938-6.499-3.82-9.217c0.381-0.534,0.592-1.168,0.59-1.838c0-0.852-0.332-1.651-0.932-2.249   l-1.631-1.632c-1.074-1.073-2.854-1.185-4.084-0.34c-2.719-1.884-5.846-3.205-9.221-3.821c-0.258-1.5-1.559-2.647-3.131-2.647   h-2.308c-1.572,0-2.873,1.147-3.131,2.647c-3.375,0.616-6.502,1.938-9.221,3.821c-1.228-0.843-3.01-0.733-4.083,0.34l-1.629,1.629   c-0.603,0.601-0.935,1.4-0.936,2.252c-0.001,0.67,0.211,1.304,0.59,1.838c-1.882,2.717-3.202,5.844-3.818,9.217   c-1.5,0.258-2.646,1.559-2.646,3.131v2.308c0,1.572,1.146,2.873,2.646,3.131c0.616,3.374,1.938,6.5,3.819,9.219   c-0.879,1.242-0.77,2.973,0.343,4.086l1.631,1.631c0.602,0.602,1.401,0.934,2.252,0.934c0.669,0,1.302-0.213,1.835-0.592   c2.718,1.883,5.844,3.203,9.217,3.818c0.258,1.5,1.559,2.648,3.131,2.648h2.308c1.572,0,2.873-1.148,3.131-2.648   c3.373-0.615,6.5-1.936,9.217-3.818c0.533,0.381,1.166,0.592,1.836,0.592c0.852,0,1.652-0.332,2.252-0.934l1.631-1.631   c0.602-0.602,0.934-1.402,0.934-2.254c0-0.668-0.213-1.301-0.592-1.834c1.883-2.719,3.203-5.844,3.82-9.217   c1.498-0.258,2.646-1.559,2.646-3.131v-2.308C76.029,42.374,74.881,41.073,73.383,40.815z M52.1,27.59   c0.848-0.266,1.543-0.869,1.922-1.661c2.424,0.509,4.682,1.472,6.688,2.787c-0.285,0.824-0.221,1.734,0.188,2.518l-5.189,5.19   c-1.08-0.713-2.297-1.233-3.607-1.503V27.59z M39.292,28.716c2.007-1.315,4.264-2.278,6.688-2.787   c0.379,0.792,1.072,1.396,1.92,1.661v7.331c-1.309,0.27-2.526,0.79-3.605,1.503l-5.189-5.189   C39.512,30.451,39.578,29.541,39.292,28.716z M33.618,34.392c0.333,0.116,0.683,0.188,1.046,0.188c0.523,0,1.021-0.139,1.472-0.375   l5.189,5.189c-0.713,1.079-1.233,2.297-1.503,3.605h-7.331c-0.266-0.848-0.869-1.541-1.661-1.92   C31.338,38.655,32.301,36.398,33.618,34.392z M36.126,56.004c-0.771-0.385-1.682-0.447-2.498-0.178   c-1.322-2.012-2.289-4.275-2.799-6.707c0.792-0.378,1.396-1.071,1.661-1.92h7.331c0.27,1.31,0.79,2.526,1.503,3.607L36.126,56.004z    M47.9,62.609c-0.848,0.266-1.541,0.869-1.92,1.66c-2.425-0.508-4.682-1.471-6.688-2.787c0.285-0.822,0.221-1.732-0.188-2.518   l5.19-5.189c1.079,0.713,2.297,1.232,3.605,1.504V62.609z M50,51.291c-3.415,0-6.192-2.777-6.192-6.191   c0-3.415,2.777-6.192,6.192-6.192c3.414,0,6.191,2.777,6.191,6.192C56.191,48.514,53.414,51.291,50,51.291z M60.709,61.48   c-2.006,1.318-4.264,2.281-6.688,2.789c-0.379-0.791-1.074-1.395-1.922-1.66v-7.33c1.311-0.271,2.527-0.791,3.607-1.504   l5.189,5.189C60.49,59.748,60.426,60.656,60.709,61.48z M66.373,55.824c-0.816-0.268-1.727-0.205-2.498,0.18l-5.199-5.197   c0.713-1.081,1.232-2.297,1.504-3.607h7.33c0.266,0.849,0.869,1.542,1.662,1.92C68.66,51.551,67.695,53.814,66.373,55.824z    M67.51,43h-7.33c-0.271-1.309-0.791-2.526-1.504-3.605l5.189-5.189c0.449,0.236,0.947,0.375,1.471,0.375   c0.363,0,0.713-0.071,1.047-0.188c1.316,2.006,2.279,4.263,2.789,6.688C68.379,41.458,67.775,42.152,67.51,43z" stroke="none" fill="rgba(211,145,60,1)" transform="matrix(2.9593982696533203, 0, 0, 2.9593982696533203, 112.26099395751953, 15.496929168701172)" stroke-width="1" data-uid="o_f07n52919_13"></path>
    </g>
    <path id="_U_QS-gwGB2tG9HzAOYzGN" fill="#354452" transform="matrix(0.5070130228996277, 0, 0, 0.5070130228996277, 257.152099609375, 309.2560729980469)" text="HydroPonos" text-anchor="middle" font-size="100" letter-spacing="0" side="left" offset="0.5" dx="0" dy="0" space="preserve" href="" font-family="Bitter" font-scale="contain" x="0" y="0" data-fl-textpath="" data-uid="o_f07n52919_14" d="M-271.40000000000003-8L-261.90000000000003-6L-261.90000000000003 0L-290.40000000000003 0L-290.40000000000003-6L-281.90000000000003-8L-281.90000000000003-62L-290.40000000000003-64L-290.40000000000003-69.5L-261.90000000000003-70L-261.90000000000003-64L-271.40000000000003-62L-271.40000000000003-40L-237.90000000000003-40L-237.90000000000003-62L-247.40000000000003-64L-247.40000000000003-69.5L-218.90000000000003-70L-218.90000000000003-64L-227.40000000000003-62L-227.40000000000003-8L-218.90000000000003-6L-218.90000000000003 0L-247.40000000000003 0L-247.40000000000003-6L-237.90000000000003-8L-237.90000000000003-32L-271.40000000000003-32L-271.40000000000003-8ZM-213.90000000000003-52.5L-190.40000000000003-53L-190.40000000000003-47L-197.40000000000003-46L-185.40000000000003-11L-174.40000000000003-45.5L-181.40000000000003-47L-181.40000000000003-52.5L-157.70000000000005-53L-157.70000000000005-47L-164.20000000000005-46L-178.40000000000003-6.4Q-183.40000000000003 6.7 -185.80000000000004 11L-185.80000000000004 11Q-193.30000000000004 23.9 -205.40000000000003 24L-205.40000000000003 24L-211.80000000000004 23.5L-210.90000000000003 16.5L-205.90000000000003 16.5Q-201.00000000000003 16.5 -197.35000000000002 12.4Q-193.70000000000005 8.3 -190.00000000000003 0.2L-190.00000000000003 0.2L-207.90000000000003-45.5L-213.90000000000003-47L-213.90000000000003-52.5ZM-125.20000000000005-76.5L-106.70000000000005-77L-106.70000000000005-8L-98.20000000000005-6L-98.20000000000005-0.5L-115.20000000000005 0L-116.00000000000004-5.7Q-122.70000000000005 1 -132.50000000000006 1L-132.50000000000006 1Q-142.20000000000005 1 -147.45000000000005-5.95Q-152.70000000000005-12.9 -152.70000000000005-25.2L-152.70000000000005-25.2Q-152.70000000000005-38.3 -146.00000000000006-46.15Q-139.30000000000004-54 -126.20000000000005-54L-126.20000000000005-54Q-121.30000000000004-54 -116.70000000000005-52.4L-116.70000000000005-52.4L-116.70000000000005-69L-125.20000000000005-71L-125.20000000000005-76.5ZM-116.70000000000005-14.5L-116.70000000000005-14.5L-116.70000000000005-44Q-120.20000000000005-46 -127.20000000000005-46L-127.20000000000005-46Q-142.20000000000005-46 -142.20000000000005-26L-142.20000000000005-26Q-142.20000000000005-17.2 -139.15000000000003-12.1Q-136.10000000000005-7 -129.70000000000005-7L-129.70000000000005-7Q-124.80000000000004-7 -121.40000000000005-9.6L-121.40000000000005-9.6Q-118.20000000000005-12.2 -116.70000000000005-14.5ZM-91.70000000000005-52.5L-75.20000000000005-53L-74.30000000000004-45.7Q-66.90000000000005-54 -59.200000000000045-54L-59.200000000000045-54Q-55.100000000000044-54 -51.30000000000005-52.8L-51.30000000000005-52.8L-50.200000000000045-52.5L-50.700000000000045-38L-57.200000000000045-38L-58.700000000000045-45.5Q-67.30000000000004-45.5 -73.20000000000005-37.7L-73.20000000000005-37.7L-73.20000000000005-8L-63.200000000000045-5.5L-63.200000000000045 0L-91.70000000000005 0L-91.70000000000005-5.5L-83.20000000000005-8L-83.20000000000005-45L-91.70000000000005-47L-91.70000000000005-52.5ZM-45.200000000000045-25.7L-45.200000000000045-25.7Q-45.200000000000045-32.1 -43.350000000000044-37.35Q-41.50000000000004-42.6 -38.100000000000044-46.3Q-34.700000000000045-50 -30.050000000000047-52Q-25.400000000000045-54 -19.800000000000047-54L-19.800000000000047-54Q-8.600000000000044-54 -2.4000000000000483-46.9Q 3.7999999999999545-39.8  3.7999999999999545-27.2L 3.7999999999999545-27.2Q 3.7999999999999545-21  1.9999999999999574-15.85Q 0.1999999999999531-10.7 -3.050000000000047-6.95Q-6.300000000000047-3.2 -10.950000000000045-1.1Q-15.600000000000044 1 -21.300000000000047 1L-21.300000000000047 1Q-32.700000000000045 1 -38.950000000000045-5.8Q-45.200000000000045-12.6 -45.200000000000045-25.7ZM-20.200000000000045-46L-20.200000000000045-46Q-34.700000000000045-46 -34.700000000000045-26.5L-34.700000000000045-26.5Q-34.700000000000045-7 -20.700000000000045-7L-20.700000000000045-7Q-13.400000000000048-7 -10.050000000000047-12Q-6.7000000000000455-17 -6.7000000000000455-27L-6.7000000000000455-27Q-6.7000000000000455-46 -20.200000000000045-46ZM 39.299999999999955 0L 11.799999999999955 0L 11.799999999999955-6L 20.299999999999955-8L 20.299999999999955-62L 11.799999999999955-64L 11.799999999999955-69.5L 30.799999999999955-70L 41.299999999999955-70Q 52.399999999999956-70  58.34999999999995-64.5Q 64.29999999999995-59  64.29999999999995-49.5L 64.29999999999995-49.5Q 64.29999999999995-38  57.24999999999996-32Q 50.19999999999995-26  37.299999999999955-26L 37.299999999999955-26L 30.799999999999955-26L 30.799999999999955-8L 39.299999999999955-6L 39.299999999999955 0ZM 40.799999999999955-62L 30.799999999999955-62L 30.799999999999955-34L 37.299999999999955-34Q 53.799999999999955-34  53.799999999999955-48L 53.799999999999955-48Q 53.799999999999955-54.2  50.399999999999956-58.1Q 46.99999999999996-62  40.799999999999955-62L 40.799999999999955-62ZM 70.79999999999995-25.7L 70.79999999999995-25.7Q 70.79999999999995-32.1  72.64999999999995-37.35Q 74.49999999999996-42.6  77.89999999999995-46.3Q 81.29999999999995-50  85.94999999999996-52Q 90.59999999999995-54  96.19999999999996-54L 96.19999999999996-54Q 107.39999999999995-54  113.59999999999995-46.9Q 119.79999999999995-39.8  119.79999999999995-27.2L 119.79999999999995-27.2Q 119.79999999999995-21  117.99999999999996-15.85Q 116.19999999999996-10.7  112.94999999999996-6.95Q 109.69999999999996-3.2  105.04999999999995-1.1Q 100.39999999999995 1  94.69999999999996 1L 94.69999999999996 1Q 83.29999999999995 1  77.04999999999995-5.8Q 70.79999999999995-12.6  70.79999999999995-25.7ZM 95.79999999999995-46L 95.79999999999995-46Q 81.29999999999995-46  81.29999999999995-26.5L 81.29999999999995-26.5Q 81.29999999999995-7  95.29999999999995-7L 95.29999999999995-7Q 102.59999999999995-7  105.94999999999996-12Q 109.29999999999995-17  109.29999999999995-27L 109.29999999999995-27Q 109.29999999999995-46  95.79999999999995-46ZM 127.79999999999995-52.5L 144.29999999999995-53L 145.19999999999996-45.9Q 146.19999999999996-46.7  147.99999999999994-48.1Q 149.79999999999995-49.5  152.24999999999994-50.8Q 154.69999999999996-52.1  157.64999999999995-53.05Q 160.59999999999997-54  163.79999999999995-54L 163.79999999999995-54Q 171.89999999999995-54  175.84999999999997-49.25Q 179.79999999999995-44.5  179.79999999999995-36L 179.79999999999995-36L 179.79999999999995-8L 187.29999999999995-5.5L 187.29999999999995 0L 163.29999999999995 0L 163.29999999999995-5.5L 169.79999999999995-8L 169.79999999999995-35Q 169.79999999999995-40.4  167.69999999999996-42.95Q 165.59999999999997-45.5  161.29999999999995-45.5L 161.29999999999995-45.5Q 159.19999999999996-45.5  157.14999999999995-44.95Q 155.09999999999997-44.4  153.34999999999997-43.5Q 151.59999999999997-42.6  150.24999999999994-41.55Q 148.89999999999995-40.5  147.99999999999994-39.5L 147.99999999999994-39.5L 146.29999999999995-37.5L 146.29999999999995-8L 152.79999999999995-5.5L 152.79999999999995 0L 127.79999999999995 0L 127.79999999999995-5.5L 136.29999999999995-8L 136.29999999999995-45L 127.79999999999995-47L 127.79999999999995-52.5ZM 194.29999999999995-25.7L 194.29999999999995-25.7Q 194.29999999999995-32.1  196.14999999999995-37.35Q 197.99999999999994-42.6  201.39999999999995-46.3Q 204.79999999999995-50  209.44999999999996-52Q 214.09999999999997-54  219.69999999999996-54L 219.69999999999996-54Q 230.89999999999995-54  237.09999999999997-46.9Q 243.29999999999995-39.8  243.29999999999995-27.2L 243.29999999999995-27.2Q 243.29999999999995-21  241.49999999999994-15.85Q 239.69999999999996-10.7  236.44999999999996-6.95Q 233.19999999999996-3.2  228.54999999999995-1.1Q 223.89999999999995 1  218.19999999999996 1L 218.19999999999996 1Q 206.79999999999995 1  200.54999999999995-5.8Q 194.29999999999995-12.6  194.29999999999995-25.7ZM 219.29999999999995-46L 219.29999999999995-46Q 204.79999999999995-46  204.79999999999995-26.5L 204.79999999999995-26.5Q 204.79999999999995-7  218.79999999999995-7L 218.79999999999995-7Q 226.09999999999997-7  229.44999999999996-12Q 232.79999999999995-17  232.79999999999995-27L 232.79999999999995-27Q 232.79999999999995-46  219.29999999999995-46ZM 251.99999999999994-1.2L 251.89999999999995-16L 258.9-16L 259.99999999999994-7.4Q 260.99999999999994-7  263.15-6.75Q 265.29999999999995-6.5  267.4-6.5L 267.4-6.5Q 273.9-6.5  276.84999999999997-8.45Q 279.79999999999995-10.4  279.79999999999995-14.4L 279.79999999999995-14.4Q 279.79999999999995-17.1  277.74999999999994-18.7Q 275.69999999999993-20.3  272.59999999999997-21.4Q 269.49999999999994-22.5  265.84999999999997-23.6Q 262.19999999999993-24.7  259.09999999999997-26.45Q 255.99999999999994-28.2  253.94999999999996-31Q 251.89999999999995-33.8  251.89999999999995-38.4L 251.89999999999995-38.4Q 251.89999999999995-45.9  256.9-49.85Q 261.9-53.8  270.19999999999993-54L 270.19999999999993-54Q 273.69999999999993-53.9  277.34999999999997-53.45Q 280.99999999999994-53  284.79999999999995-51.8L 284.79999999999995-51.8L 287.29999999999995-51L 286.99999999999994-37.5L 280.49999999999994-37.5L 278.9-45.3Q 278.09999999999997-45.6  275.79999999999995-46.05Q 273.49999999999994-46.5  270.9-46.5L 270.9-46.5Q 269.09999999999997-46.5  267.49999999999994-46.2Q 265.9-45.9  264.65-45.2Q 263.4-44.5  262.65-43.2Q 261.9-41.9  261.9-40L 261.9-40Q 261.9-37.1  263.94999999999993-35.45Q 265.99999999999994-33.8  269.09999999999997-32.6Q 272.19999999999993-31.4  275.84999999999997-30.3Q 279.49999999999994-29.2  282.59999999999997-27.45Q 285.69999999999993-25.7  287.74999999999994-23Q 289.79999999999995-20.3  289.79999999999995-15.9L 289.79999999999995-15.9Q 289.79999999999995-11.7  287.99999999999994-8.5Q 286.19999999999993-5.3  283.15-3.15Q 280.09999999999997-1  276.04999999999995 0.05Q 271.99999999999994 1.1  267.4 1.1L 267.4 1.1Q 265.69999999999993 1.1  263.84999999999997 0.95Q 261.99999999999994 0.8  260.19999999999993 0.55Q 258.4 0.3  256.84999999999997 0Q 255.29999999999995-0.3  254.29999999999995-0.6L 254.29999999999995-0.6L 251.99999999999994-1.2Z"></path>
    <g transform="matrix(3.727891206741333, 0, 0, 3.727891206741333, 212.2653045654297, 121.6955337524414)" data-uid="o_f07n52919_15">
        <path fill="#68B345" d="M20 15c0-4.97-8-15-8-15S4 10.03 4 15s3.582 9 8 9 8-4.03 8-9z" transform="matrix(1, 0, 0, 1, 0, 0)" data-uid="o_f07n52919_16"></path>
        <path fill="#9ACF87" d="M8.25 5.249C10.165 2.304 12 0 12 0v8.998l-3.75-3.75z" transform="matrix(1, 0, 0, 1, 0, 0)" data-uid="o_f07n52919_17"></path>
        <path fill="#85C662" d="M12 8.998v8.998l-6.96-6.96c.825-1.915 2.031-3.972 3.21-5.787L12 8.998z" transform="matrix(1, 0, 0, 1, 0, 0)" data-uid="o_f07n52919_18"></path>
        <path fill="#73B564" d="M12 24c-4.418 0-8-4.03-8-9 0-1.121.41-2.501 1.04-3.964l6.96 6.96V24z" transform="matrix(1, 0, 0, 1, 0, 0)" data-uid="o_f07n52919_19"></path>
        <path fill="#1DAA4C" d="M15.75 5.249C13.835 2.304 12 0 12 0v8.998l3.75-3.75z" transform="matrix(1, 0, 0, 1, 0, 0)" data-uid="o_f07n52919_20"></path>
        <path fill="#2F9E48" d="M12 8.998v8.998l6.96-6.96c-.825-1.915-2.031-3.972-3.21-5.787L12 8.998z" transform="matrix(1, 0, 0, 1, 0, 0)" data-uid="o_f07n52919_21"></path>
        <path fill="#2D9145" d="M12 24c4.418 0 8-4.03 8-9 0-1.121-.41-2.501-1.04-3.964L12 17.996V24z" transform="matrix(1, 0, 0, 1, 0, 0)" data-uid="o_f07n52919_22"></path>
        <path opacity="0.1" fill="#010101" d="M12 23.75c4.38 0 7.932-3.96 7.994-8.871.001.04.006.082.006.121 0 4.97-3.582 9-8 9s-8-4.03-8-9c0-.04.005-.081.006-.121.062 4.91 3.614 8.871 7.994 8.871z" transform="matrix(1, 0, 0, 1, 0, 0)" data-uid="o_f07n52919_23"></path>
        <path opacity="0.2" fill="#FFF" d="M4.006 15.129c0-.043-.006-.085-.006-.129 0-4.97 8-15 8-15s8 10.03 8 15c0 .044-.005.086-.006.129C19.87 10.119 12 .25 12 .25s-7.87 9.87-7.994 14.879z" transform="matrix(1, 0, 0, 1, 0, 0)" data-uid="o_f07n52919_24"></path>
        <path fill="url(#o_f07n52919_3)" d="M20 15c0-4.97-8-15-8-15S4 10.03 4 15s3.582 9 8 9 8-4.03 8-9z" transform="matrix(1, 0, 0, 1, 0, 0)" data-uid="o_f07n52919_25"></path>
    </g>
</svg>