<svg xmlns="http://www.w3.org/2000/svg" width="200" height="50" style="overflow: visible;color: rgb(53 69 82);" viewBox="100 250 312 80" data-svgdocument="" id="_s4M8nGOz1twn-jflBdZg8" class="fl-svgdocument" x="0" y="0" overflow="hidden" data-bbox="109.91554946121693 99.49145326575484 294.1689010775661 221.9329440060289">
    <path id="_U_QS-gwGB2tG9HzAOYzGN" fill="#354452" transform="matrix(0.5070130228996277, 0, 0, 0.5070130228996277, 257.152099609375, 309.2560729980469)" text="HydroPonos" text-anchor="middle" font-size="100" letter-spacing="0" side="left" offset="0.5" dx="0" dy="0" space="preserve" href="" font-family="Bitter" font-scale="contain" x="0" y="0" data-fl-textpath="" data-uid="o_f07n52919_14" d="M-271.40000000000003-8L-261.90000000000003-6L-261.90000000000003 0L-290.40000000000003 0L-290.40000000000003-6L-281.90000000000003-8L-281.90000000000003-62L-290.40000000000003-64L-290.40000000000003-69.5L-261.90000000000003-70L-261.90000000000003-64L-271.40000000000003-62L-271.40000000000003-40L-237.90000000000003-40L-237.90000000000003-62L-247.40000000000003-64L-247.40000000000003-69.5L-218.90000000000003-70L-218.90000000000003-64L-227.40000000000003-62L-227.40000000000003-8L-218.90000000000003-6L-218.90000000000003 0L-247.40000000000003 0L-247.40000000000003-6L-237.90000000000003-8L-237.90000000000003-32L-271.40000000000003-32L-271.40000000000003-8ZM-213.90000000000003-52.5L-190.40000000000003-53L-190.40000000000003-47L-197.40000000000003-46L-185.40000000000003-11L-174.40000000000003-45.5L-181.40000000000003-47L-181.40000000000003-52.5L-157.70000000000005-53L-157.70000000000005-47L-164.20000000000005-46L-178.40000000000003-6.4Q-183.40000000000003 6.7 -185.80000000000004 11L-185.80000000000004 11Q-193.30000000000004 23.9 -205.40000000000003 24L-205.40000000000003 24L-211.80000000000004 23.5L-210.90000000000003 16.5L-205.90000000000003 16.5Q-201.00000000000003 16.5 -197.35000000000002 12.4Q-193.70000000000005 8.3 -190.00000000000003 0.2L-190.00000000000003 0.2L-207.90000000000003-45.5L-213.90000000000003-47L-213.90000000000003-52.5ZM-125.20000000000005-76.5L-106.70000000000005-77L-106.70000000000005-8L-98.20000000000005-6L-98.20000000000005-0.5L-115.20000000000005 0L-116.00000000000004-5.7Q-122.70000000000005 1 -132.50000000000006 1L-132.50000000000006 1Q-142.20000000000005 1 -147.45000000000005-5.95Q-152.70000000000005-12.9 -152.70000000000005-25.2L-152.70000000000005-25.2Q-152.70000000000005-38.3 -146.00000000000006-46.15Q-139.30000000000004-54 -126.20000000000005-54L-126.20000000000005-54Q-121.30000000000004-54 -116.70000000000005-52.4L-116.70000000000005-52.4L-116.70000000000005-69L-125.20000000000005-71L-125.20000000000005-76.5ZM-116.70000000000005-14.5L-116.70000000000005-14.5L-116.70000000000005-44Q-120.20000000000005-46 -127.20000000000005-46L-127.20000000000005-46Q-142.20000000000005-46 -142.20000000000005-26L-142.20000000000005-26Q-142.20000000000005-17.2 -139.15000000000003-12.1Q-136.10000000000005-7 -129.70000000000005-7L-129.70000000000005-7Q-124.80000000000004-7 -121.40000000000005-9.6L-121.40000000000005-9.6Q-118.20000000000005-12.2 -116.70000000000005-14.5ZM-91.70000000000005-52.5L-75.20000000000005-53L-74.30000000000004-45.7Q-66.90000000000005-54 -59.200000000000045-54L-59.200000000000045-54Q-55.100000000000044-54 -51.30000000000005-52.8L-51.30000000000005-52.8L-50.200000000000045-52.5L-50.700000000000045-38L-57.200000000000045-38L-58.700000000000045-45.5Q-67.30000000000004-45.5 -73.20000000000005-37.7L-73.20000000000005-37.7L-73.20000000000005-8L-63.200000000000045-5.5L-63.200000000000045 0L-91.70000000000005 0L-91.70000000000005-5.5L-83.20000000000005-8L-83.20000000000005-45L-91.70000000000005-47L-91.70000000000005-52.5ZM-45.200000000000045-25.7L-45.200000000000045-25.7Q-45.200000000000045-32.1 -43.350000000000044-37.35Q-41.50000000000004-42.6 -38.100000000000044-46.3Q-34.700000000000045-50 -30.050000000000047-52Q-25.400000000000045-54 -19.800000000000047-54L-19.800000000000047-54Q-8.600000000000044-54 -2.4000000000000483-46.9Q 3.7999999999999545-39.8  3.7999999999999545-27.2L 3.7999999999999545-27.2Q 3.7999999999999545-21  1.9999999999999574-15.85Q 0.1999999999999531-10.7 -3.050000000000047-6.95Q-6.300000000000047-3.2 -10.950000000000045-1.1Q-15.600000000000044 1 -21.300000000000047 1L-21.300000000000047 1Q-32.700000000000045 1 -38.950000000000045-5.8Q-45.200000000000045-12.6 -45.200000000000045-25.7ZM-20.200000000000045-46L-20.200000000000045-46Q-34.700000000000045-46 -34.700000000000045-26.5L-34.700000000000045-26.5Q-34.700000000000045-7 -20.700000000000045-7L-20.700000000000045-7Q-13.400000000000048-7 -10.050000000000047-12Q-6.7000000000000455-17 -6.7000000000000455-27L-6.7000000000000455-27Q-6.7000000000000455-46 -20.200000000000045-46ZM 39.299999999999955 0L 11.799999999999955 0L 11.799999999999955-6L 20.299999999999955-8L 20.299999999999955-62L 11.799999999999955-64L 11.799999999999955-69.5L 30.799999999999955-70L 41.299999999999955-70Q 52.399999999999956-70  58.34999999999995-64.5Q 64.29999999999995-59  64.29999999999995-49.5L 64.29999999999995-49.5Q 64.29999999999995-38  57.24999999999996-32Q 50.19999999999995-26  37.299999999999955-26L 37.299999999999955-26L 30.799999999999955-26L 30.799999999999955-8L 39.299999999999955-6L 39.299999999999955 0ZM 40.799999999999955-62L 30.799999999999955-62L 30.799999999999955-34L 37.299999999999955-34Q 53.799999999999955-34  53.799999999999955-48L 53.799999999999955-48Q 53.799999999999955-54.2  50.399999999999956-58.1Q 46.99999999999996-62  40.799999999999955-62L 40.799999999999955-62ZM 70.79999999999995-25.7L 70.79999999999995-25.7Q 70.79999999999995-32.1  72.64999999999995-37.35Q 74.49999999999996-42.6  77.89999999999995-46.3Q 81.29999999999995-50  85.94999999999996-52Q 90.59999999999995-54  96.19999999999996-54L 96.19999999999996-54Q 107.39999999999995-54  113.59999999999995-46.9Q 119.79999999999995-39.8  119.79999999999995-27.2L 119.79999999999995-27.2Q 119.79999999999995-21  117.99999999999996-15.85Q 116.19999999999996-10.7  112.94999999999996-6.95Q 109.69999999999996-3.2  105.04999999999995-1.1Q 100.39999999999995 1  94.69999999999996 1L 94.69999999999996 1Q 83.29999999999995 1  77.04999999999995-5.8Q 70.79999999999995-12.6  70.79999999999995-25.7ZM 95.79999999999995-46L 95.79999999999995-46Q 81.29999999999995-46  81.29999999999995-26.5L 81.29999999999995-26.5Q 81.29999999999995-7  95.29999999999995-7L 95.29999999999995-7Q 102.59999999999995-7  105.94999999999996-12Q 109.29999999999995-17  109.29999999999995-27L 109.29999999999995-27Q 109.29999999999995-46  95.79999999999995-46ZM 127.79999999999995-52.5L 144.29999999999995-53L 145.19999999999996-45.9Q 146.19999999999996-46.7  147.99999999999994-48.1Q 149.79999999999995-49.5  152.24999999999994-50.8Q 154.69999999999996-52.1  157.64999999999995-53.05Q 160.59999999999997-54  163.79999999999995-54L 163.79999999999995-54Q 171.89999999999995-54  175.84999999999997-49.25Q 179.79999999999995-44.5  179.79999999999995-36L 179.79999999999995-36L 179.79999999999995-8L 187.29999999999995-5.5L 187.29999999999995 0L 163.29999999999995 0L 163.29999999999995-5.5L 169.79999999999995-8L 169.79999999999995-35Q 169.79999999999995-40.4  167.69999999999996-42.95Q 165.59999999999997-45.5  161.29999999999995-45.5L 161.29999999999995-45.5Q 159.19999999999996-45.5  157.14999999999995-44.95Q 155.09999999999997-44.4  153.34999999999997-43.5Q 151.59999999999997-42.6  150.24999999999994-41.55Q 148.89999999999995-40.5  147.99999999999994-39.5L 147.99999999999994-39.5L 146.29999999999995-37.5L 146.29999999999995-8L 152.79999999999995-5.5L 152.79999999999995 0L 127.79999999999995 0L 127.79999999999995-5.5L 136.29999999999995-8L 136.29999999999995-45L 127.79999999999995-47L 127.79999999999995-52.5ZM 194.29999999999995-25.7L 194.29999999999995-25.7Q 194.29999999999995-32.1  196.14999999999995-37.35Q 197.99999999999994-42.6  201.39999999999995-46.3Q 204.79999999999995-50  209.44999999999996-52Q 214.09999999999997-54  219.69999999999996-54L 219.69999999999996-54Q 230.89999999999995-54  237.09999999999997-46.9Q 243.29999999999995-39.8  243.29999999999995-27.2L 243.29999999999995-27.2Q 243.29999999999995-21  241.49999999999994-15.85Q 239.69999999999996-10.7  236.44999999999996-6.95Q 233.19999999999996-3.2  228.54999999999995-1.1Q 223.89999999999995 1  218.19999999999996 1L 218.19999999999996 1Q 206.79999999999995 1  200.54999999999995-5.8Q 194.29999999999995-12.6  194.29999999999995-25.7ZM 219.29999999999995-46L 219.29999999999995-46Q 204.79999999999995-46  204.79999999999995-26.5L 204.79999999999995-26.5Q 204.79999999999995-7  218.79999999999995-7L 218.79999999999995-7Q 226.09999999999997-7  229.44999999999996-12Q 232.79999999999995-17  232.79999999999995-27L 232.79999999999995-27Q 232.79999999999995-46  219.29999999999995-46ZM 251.99999999999994-1.2L 251.89999999999995-16L 258.9-16L 259.99999999999994-7.4Q 260.99999999999994-7  263.15-6.75Q 265.29999999999995-6.5  267.4-6.5L 267.4-6.5Q 273.9-6.5  276.84999999999997-8.45Q 279.79999999999995-10.4  279.79999999999995-14.4L 279.79999999999995-14.4Q 279.79999999999995-17.1  277.74999999999994-18.7Q 275.69999999999993-20.3  272.59999999999997-21.4Q 269.49999999999994-22.5  265.84999999999997-23.6Q 262.19999999999993-24.7  259.09999999999997-26.45Q 255.99999999999994-28.2  253.94999999999996-31Q 251.89999999999995-33.8  251.89999999999995-38.4L 251.89999999999995-38.4Q 251.89999999999995-45.9  256.9-49.85Q 261.9-53.8  270.19999999999993-54L 270.19999999999993-54Q 273.69999999999993-53.9  277.34999999999997-53.45Q 280.99999999999994-53  284.79999999999995-51.8L 284.79999999999995-51.8L 287.29999999999995-51L 286.99999999999994-37.5L 280.49999999999994-37.5L 278.9-45.3Q 278.09999999999997-45.6  275.79999999999995-46.05Q 273.49999999999994-46.5  270.9-46.5L 270.9-46.5Q 269.09999999999997-46.5  267.49999999999994-46.2Q 265.9-45.9  264.65-45.2Q 263.4-44.5  262.65-43.2Q 261.9-41.9  261.9-40L 261.9-40Q 261.9-37.1  263.94999999999993-35.45Q 265.99999999999994-33.8  269.09999999999997-32.6Q 272.19999999999993-31.4  275.84999999999997-30.3Q 279.49999999999994-29.2  282.59999999999997-27.45Q 285.69999999999993-25.7  287.74999999999994-23Q 289.79999999999995-20.3  289.79999999999995-15.9L 289.79999999999995-15.9Q 289.79999999999995-11.7  287.99999999999994-8.5Q 286.19999999999993-5.3  283.15-3.15Q 280.09999999999997-1  276.04999999999995 0.05Q 271.99999999999994 1.1  267.4 1.1L 267.4 1.1Q 265.69999999999993 1.1  263.84999999999997 0.95Q 261.99999999999994 0.8  260.19999999999993 0.55Q 258.4 0.3  256.84999999999997 0Q 255.29999999999995-0.3  254.29999999999995-0.6L 254.29999999999995-0.6L 251.99999999999994-1.2Z"/>
</svg>